<svg width="657.9px" height="122px" xmlns="http://www.w3.org/2000/svg" viewBox="-78.94687499999998 14 657.89375 122" style="background: rgba(0, 0, 0, 0)" preserveAspectRatio="xMidYMid"><defs><linearGradient id="editing-gradow-gradient" x1="0" x2="1" y1="0.5" y2="0.5" gradientUnits="objectBoundingBox"><stop offset="0" stop-color="#51b3e6"></stop><stop offset="1" stop-color="#e64dde"></stop></linearGradient><filter id="editing-gradow-filter" x="-100%" y="-100%" width="300%" height="300%"><feFlood flood-color="#fffcd9" result="flood"></feFlood><feComposite operator="in" in2="SourceAlpha" in="flood" result="shadow"></feComposite><feOffset dx="-4" dy="-4" in="SourceGraphic" result="offset-1"></feOffset><feOffset dx="4" dy="4" in="shadow" result="offset-2"></feOffset><feMerge><feMergeNode in="offset-2"></feMergeNode><feMergeNode in="offset-1"></feMergeNode></feMerge></filter></defs><g filter="url(#editing-gradow-filter)"><g transform="matrix(1.1,0,0,1,-7.5,104.5)"><path d="M 28.2 -3.4 L 14.3 -3.4 L 22.4 -45.6 L 36.5 -45.6 L 28.2 -3.4 Z M 84 -2.1 L 84 -2.1 L 84 -2.1 Q 76.2 -2.1 76.2 -8.1 L 76.2 -8.1 L 76.2 -8.1 Q 76.2 -10.8 77.3 -15.8 L 77.3 -15.8 L 77.3 -15.8 Q 78.5 -20.9 78.8 -23 L 78.8 -23 L 78.8 -23 Q 79.7 -27.7 79.7 -29.1 L 79.7 -29.1 L 79.7 -29.1 Q 79.7 -32.4 77.3 -32.4 L 77.3 -32.4 L 77.3 -32.4 Q 75.7 -32.4 74.2 -30.2 L 74.2 -30.2 L 74.2 -30.2 Q 72.6 -28 71.9 -23.6 L 71.9 -23.6 L 68 -3.4 L 55.5 -2.1 L 58.9 -19.5 L 58.9 -19.5 Q 59.5 -22.4 60 -25.7 L 60 -25.7 L 60 -25.7 Q 60.5 -28.9 60.5 -29.4 L 60.5 -29.4 L 60.5 -29.4 Q 60.5 -32.4 58.4 -32.4 L 58.4 -32.4 L 58.4 -32.4 Q 56.9 -32.4 55.3 -30.2 L 55.3 -30.2 L 55.3 -30.2 Q 53.7 -28 52.8 -23.6 L 52.8 -23.6 L 48.9 -3.4 L 36.3 -2.1 L 43 -36 L 53.4 -37.3 L 52.3 -30.9 L 52.3 -30.9 Q 54 -34.3 57.1 -35.8 L 57.1 -35.8 L 57.1 -35.8 Q 60.1 -37.3 64.9 -37.3 L 64.9 -37.3 L 64.9 -37.3 Q 67.7 -37.3 69.5 -36 L 69.5 -36 L 69.5 -36 Q 71.3 -34.6 71.9 -32.5 L 71.9 -32.5 L 71.9 -32.5 Q 72.9 -34.7 75.7 -36 L 75.7 -36 L 75.7 -36 Q 78.5 -37.3 81.9 -37.3 L 81.9 -37.3 L 81.9 -37.3 Q 85.4 -37.3 87.1 -36.6 L 87.1 -36.6 L 87.1 -36.6 Q 88.8 -35.8 89.8 -34.6 L 89.8 -34.6 L 89.8 -34.6 Q 91.5 -32.4 91.5 -28.3 L 91.5 -28.3 L 91.5 -28.3 Q 91.5 -24.3 89.8 -15.9 L 89.8 -15.9 L 89.8 -15.9 Q 88.9 -11.8 88.9 -10.3 L 88.9 -10.3 L 88.9 -10.3 Q 88.9 -8.8 89.7 -7.9 L 89.7 -7.9 L 89.7 -7.9 Q 90.6 -7 91.9 -6.9 L 91.9 -6.9 L 91.9 -6.9 Q 91.3 -4.7 89 -3.4 L 89 -3.4 L 89 -3.4 Q 86.8 -2.1 84 -2.1 Z M 99.6 -5.3 L 99.6 -5.3 L 99.6 -5.3 Q 98.1 -7 97.4 -9.6 L 97.4 -9.6 L 97.4 -9.6 Q 96.8 -12.2 96.8 -16.5 L 96.8 -16.5 L 96.8 -16.5 Q 96.8 -20.8 98.2 -24.7 L 98.2 -24.7 L 98.2 -24.7 Q 99.7 -28.6 102.4 -31.4 L 102.4 -31.4 L 102.4 -31.4 Q 107.9 -37.3 117 -37.3 L 117 -37.3 L 117 -37.3 Q 120.2 -37.3 122.6 -36.2 L 122.6 -36.2 L 133.6 -37.3 L 128.8 -12.4 L 128.8 -12.4 Q 128.6 -11.6 128.6 -10.2 L 128.6 -10.2 L 128.6 -10.2 Q 128.6 -8.8 129.5 -7.9 L 129.5 -7.9 L 129.5 -7.9 Q 130.4 -7 131.6 -6.9 L 131.6 -6.9 L 131.6 -6.9 Q 131 -4.7 128.7 -3.4 L 128.7 -3.4 L 128.7 -3.4 Q 126.3 -2.1 123.7 -2.1 L 123.7 -2.1 L 123.7 -2.1 Q 121.1 -2.1 119.3 -3.1 L 119.3 -3.1 L 119.3 -3.1 Q 117.6 -4.1 117 -5.8 L 117 -5.8 L 117 -5.8 Q 116 -4.2 113.8 -3.1 L 113.8 -3.1 L 113.8 -3.1 Q 111.7 -2.1 108.8 -2.1 L 108.8 -2.1 L 108.8 -2.1 Q 105.8 -2.1 103.5 -2.9 L 103.5 -2.9 L 103.5 -2.9 Q 101.1 -3.7 99.6 -5.3 Z M 113.1 -31.3 L 113.1 -31.3 L 113.1 -31.3 Q 112.4 -30.1 111.7 -28.2 L 111.7 -28.2 L 111.7 -28.2 Q 111.1 -26.2 110 -21 L 110 -21 L 110 -21 Q 109 -15.8 109 -12.1 L 109 -12.1 L 109 -12.1 Q 109 -8.4 109.6 -7.3 L 109.6 -7.3 L 109.6 -7.3 Q 110.1 -6.2 111.2 -6.2 L 111.2 -6.2 L 111.2 -6.2 Q 113.2 -6.2 114.7 -8.2 L 114.7 -8.2 L 114.7 -8.2 Q 116.2 -10.1 116.8 -13.6 L 116.8 -13.6 L 120.2 -32.3 L 120.2 -32.3 Q 118.8 -33.5 117.3 -33.5 L 117.3 -33.5 L 117.3 -33.5 Q 115.7 -33.5 114.8 -33 L 114.8 -33 L 114.8 -33 Q 113.8 -32.5 113.1 -31.3 Z M 141.3 -30.1 L 141.3 -30.1 L 141.3 -30.1 Q 143.5 -33.2 146.8 -35.3 L 146.8 -35.3 L 146.8 -35.3 Q 150.1 -37.3 154.1 -37.3 L 154.1 -37.3 L 154.1 -37.3 Q 158.1 -37.3 160.1 -36 L 160.1 -36 L 172.6 -37.3 L 168.2 -12.7 L 168.2 -12.7 Q 166 -0.2 161.3 4.7 L 161.3 4.7 L 161.3 4.7 Q 156.7 9.4 147.9 9.4 L 147.9 9.4 L 147.9 9.4 Q 141.2 9.4 137.3 7.3 L 137.3 7.3 L 137.3 7.3 Q 133.5 5.2 133.5 1.7 L 133.5 1.7 L 133.5 1.7 Q 133.5 -1 135.5 -2.5 L 135.5 -2.5 L 135.5 -2.5 Q 137.5 -4 140.5 -4 L 140.5 -4 L 140.5 -4 Q 143.2 -4 145.3 -2.8 L 145.3 -2.8 L 145.3 -2.8 Q 146.5 -2.1 147.1 -1.2 L 147.1 -1.2 L 147.1 -1.2 Q 145.6 0.1 145.6 2.2 L 145.6 2.2 L 145.6 2.2 Q 145.6 4.9 148.1 4.9 L 148.1 4.9 L 148.1 4.9 Q 152.4 4.9 154.9 -5.2 L 154.9 -5.2 L 154.9 -5.2 Q 155.6 -7.9 156.1 -10.7 L 156.1 -10.7 L 156.1 -10.7 Q 153.3 -7.2 146.7 -7.2 L 146.7 -7.2 L 146.7 -7.2 Q 142.2 -7.2 139.6 -9.3 L 139.6 -9.3 L 139.6 -9.3 Q 136.9 -11.5 136.9 -16.6 L 136.9 -16.6 L 136.9 -16.6 Q 136.9 -19.8 138 -23.5 L 138 -23.5 L 138 -23.5 Q 139.1 -27.1 141.3 -30.1 Z M 149.6 -16.5 L 149.6 -16.5 L 149.6 -16.5 Q 149.6 -12.1 151.9 -12.1 L 151.9 -12.1 L 151.9 -12.1 Q 153.4 -12.1 154.9 -13.8 L 154.9 -13.8 L 154.9 -13.8 Q 156 -15.1 156.5 -17.1 L 156.5 -17.1 L 159.7 -33.5 L 159.7 -33.5 Q 159.4 -33.6 159.1 -33.7 L 159.1 -33.7 L 159.1 -33.7 Q 158.5 -34 157.6 -34 L 157.6 -34 L 157.6 -34 Q 153.7 -34 151.4 -27.6 L 151.4 -27.6 L 151.4 -27.6 Q 149.6 -22.6 149.6 -16.5 Z M 201 -14.2 L 201 -14.2 L 201 -14.2 Q 202.6 -13.1 202.6 -10.7 L 202.6 -10.7 L 202.6 -10.7 Q 202.6 -8.3 201.4 -6.8 L 201.4 -6.8 L 201.4 -6.8 Q 200.2 -5.3 198.2 -4.2 L 198.2 -4.2 L 198.2 -4.2 Q 194.1 -2.1 189.7 -2.1 L 189.7 -2.1 L 189.7 -2.1 Q 185.3 -2.1 182.7 -3.1 L 182.7 -3.1 L 182.7 -3.1 Q 180.1 -4 178.4 -5.8 L 178.4 -5.8 L 178.4 -5.8 Q 175 -9.2 175 -15.4 L 175 -15.4 L 175 -15.4 Q 175 -25.1 180.2 -31 L 180.2 -31 L 180.2 -31 Q 185.8 -37.3 195.6 -37.3 L 195.6 -37.3 L 195.6 -37.3 Q 201.7 -37.3 204.7 -34.8 L 204.7 -34.8 L 204.7 -34.8 Q 207 -32.8 207 -29.7 L 207 -29.7 L 207 -29.7 Q 207 -18.4 187.5 -18.4 L 187.5 -18.4 L 187.5 -18.4 Q 187.3 -16.8 187.3 -15.4 L 187.3 -15.4 L 187.3 -15.4 Q 187.3 -12.4 188.6 -11.3 L 188.6 -11.3 L 188.6 -11.3 Q 189.9 -10.2 192.3 -10.2 L 192.3 -10.2 L 192.3 -10.2 Q 194.7 -10.2 197.3 -11.3 L 197.3 -11.3 L 197.3 -11.3 Q 199.9 -12.4 201 -14.2 Z M 188 -21.2 L 188 -21.2 L 188 -21.2 Q 192.5 -21.2 195.1 -24 L 195.1 -24 L 195.1 -24 Q 197.7 -26.7 197.7 -31 L 197.7 -31 L 197.7 -31 Q 197.7 -32.5 197.2 -33.3 L 197.2 -33.3 L 197.2 -33.3 Q 196.7 -34.1 195.6 -34.1 L 195.6 -34.1 L 195.6 -34.1 Q 194.5 -34.1 193.6 -33.6 L 193.6 -33.6 L 193.6 -33.6 Q 192.6 -33.2 191.7 -31.8 L 191.7 -31.8 L 191.7 -31.8 Q 189.3 -28.6 188 -21.2 Z M 228.3 -25.9 L 228.3 -25.9 L 228.3 -25.9 Q 229.2 -28.2 229.2 -30.3 L 229.2 -30.3 L 229.2 -30.3 Q 229.2 -34.1 226.1 -34.1 L 226.1 -34.1 L 226.1 -34.1 Q 224.5 -34.1 223.2 -32.6 L 223.2 -32.6 L 223.2 -32.6 Q 221.9 -31.2 221.9 -29.4 L 221.9 -29.4 L 221.9 -29.4 Q 221.9 -28.1 222.9 -27.1 L 222.9 -27.1 L 222.9 -27.1 Q 224.4 -25.7 228.1 -23.4 L 228.1 -23.4 L 228.1 -23.4 Q 231.9 -21.1 233.4 -19.2 L 233.4 -19.2 L 233.4 -19.2 Q 234.8 -17.3 234.8 -14.7 L 234.8 -14.7 L 234.8 -14.7 Q 234.8 -12.1 233.6 -9.7 L 233.6 -9.7 L 233.6 -9.7 Q 232.3 -7.4 230.1 -5.7 L 230.1 -5.7 L 230.1 -5.7 Q 225.3 -2.1 217.6 -2.1 L 217.6 -2.1 L 217.6 -2.1 Q 213.4 -2.1 210.2 -4.3 L 210.2 -4.3 L 210.2 -4.3 Q 207 -6.4 207 -8.9 L 207 -8.9 L 207 -8.9 Q 207 -11.4 208.9 -12.9 L 208.9 -12.9 L 208.9 -12.9 Q 210.7 -14.3 213.4 -14.3 L 213.4 -14.3 L 213.4 -14.3 Q 216.1 -14.3 217.7 -13.3 L 217.7 -13.3 L 217.7 -13.3 Q 216.9 -11.2 216.9 -9.8 L 216.9 -9.8 L 216.9 -9.8 Q 216.9 -5.6 220.5 -5.6 L 220.5 -5.6 L 220.5 -5.6 Q 222 -5.6 223 -6.5 L 223 -6.5 L 223 -6.5 Q 224.1 -7.5 224.1 -9.2 L 224.1 -9.2 L 224.1 -9.2 Q 224.1 -12.4 218.5 -15.9 L 218.5 -15.9 L 218.5 -15.9 Q 214.1 -18.8 213 -20 L 213 -20 L 213 -20 Q 211.3 -22 211.3 -24.6 L 211.3 -24.6 L 211.3 -24.6 Q 211.3 -27.1 212.5 -29.6 L 212.5 -29.6 L 212.5 -29.6 Q 213.7 -32 216 -33.7 L 216 -33.7 L 216 -33.7 Q 220.7 -37.3 228.8 -37.3 L 228.8 -37.3 L 228.8 -37.3 Q 232.9 -37.3 235.4 -35.7 L 235.4 -35.7 L 235.4 -35.7 Q 237.9 -34 237.9 -31.2 L 237.9 -31.2 L 237.9 -31.2 Q 237.9 -28.4 236.2 -26.8 L 236.2 -26.8 L 236.2 -26.8 Q 234.5 -25.2 231.4 -25.2 L 231.4 -25.2 L 231.4 -25.2 Q 229.3 -25.2 228.3 -25.9 Z M 279.3 -24 L 292.3 -25.2 L 292.3 -25.2 Q 287.7 -15 287.7 -3.3 L 287.7 -3.3 L 287.7 -3.3 Q 285.9 -2.1 283.4 -2.1 L 283.4 -2.1 L 283.4 -2.1 Q 280.9 -2.1 279.3 -3.3 L 279.3 -3.3 L 279.3 -3.3 Q 277.7 -4.5 277.4 -5.7 L 277.4 -5.7 L 277.4 -5.7 Q 275.8 -4 273.2 -3.1 L 273.2 -3.1 L 273.2 -3.1 Q 270.6 -2.1 267.8 -2.1 L 267.8 -2.1 L 267.8 -2.1 Q 265.1 -2.1 262.7 -3 L 262.7 -3 L 262.7 -3 Q 260.3 -3.9 258.4 -5.9 L 258.4 -5.9 L 258.4 -5.9 Q 254.3 -10.2 254.3 -18.5 L 254.3 -18.5 L 254.3 -18.5 Q 254.3 -31.3 261.2 -39 L 261.2 -39 L 261.2 -39 Q 268.2 -46.9 280.7 -46.9 L 280.7 -46.9 L 280.7 -46.9 Q 289.3 -46.9 292.4 -42.4 L 292.4 -42.4 L 292.4 -42.4 Q 293.4 -41 293.4 -39.3 L 293.4 -39.3 L 293.4 -39.3 Q 293.4 -37.6 292.6 -36.2 L 292.6 -36.2 L 292.6 -36.2 Q 291.9 -34.8 290.7 -33.6 L 290.7 -33.6 L 290.7 -33.6 Q 288 -31 284.6 -31 L 284.6 -31 L 284.6 -31 Q 283.3 -31 282 -31.5 L 282 -31.5 L 282 -31.5 Q 282.2 -33.4 282.2 -35.7 L 282.2 -35.7 L 282.2 -35.7 Q 282.2 -37.9 282.1 -38.9 L 282.1 -38.9 L 282.1 -38.9 Q 281.9 -39.9 281.5 -40.8 L 281.5 -40.8 L 281.5 -40.8 Q 280.7 -42.5 278.9 -42.5 L 278.9 -42.5 L 278.9 -42.5 Q 277 -42.5 275 -40.5 L 275 -40.5 L 275 -40.5 Q 273 -38.6 271.4 -35.4 L 271.4 -35.4 L 271.4 -35.4 Q 267.9 -28.2 267.9 -19.6 L 267.9 -19.6 L 267.9 -19.6 Q 267.9 -15.6 269.4 -12.8 L 269.4 -12.8 L 269.4 -12.8 Q 271.1 -9.7 274 -9.7 L 274 -9.7 L 274 -9.7 Q 275.1 -9.7 276 -10.2 L 276 -10.2 L 276 -10.2 Q 276.9 -10.8 277.3 -11.1 L 277.3 -11.1 L 279.3 -24 Z M 298.2 -5.3 L 298.2 -5.3 L 298.2 -5.3 Q 296.7 -7 296 -9.6 L 296 -9.6 L 296 -9.6 Q 295.3 -12.2 295.3 -16.5 L 295.3 -16.5 L 295.3 -16.5 Q 295.3 -20.8 296.8 -24.7 L 296.8 -24.7 L 296.8 -24.7 Q 298.3 -28.6 301 -31.4 L 301 -31.4 L 301 -31.4 Q 306.5 -37.3 315.6 -37.3 L 315.6 -37.3 L 315.6 -37.3 Q 318.8 -37.3 321.2 -36.2 L 321.2 -36.2 L 332.1 -37.3 L 327.4 -12.4 L 327.4 -12.4 Q 327.2 -11.6 327.2 -10.2 L 327.2 -10.2 L 327.2 -10.2 Q 327.2 -8.8 328.1 -7.9 L 328.1 -7.9 L 328.1 -7.9 Q 328.9 -7 330.2 -6.9 L 330.2 -6.9 L 330.2 -6.9 Q 329.6 -4.7 327.3 -3.4 L 327.3 -3.4 L 327.3 -3.4 Q 324.9 -2.1 322.3 -2.1 L 322.3 -2.1 L 322.3 -2.1 Q 319.7 -2.1 317.9 -3.1 L 317.9 -3.1 L 317.9 -3.1 Q 316.1 -4.1 315.6 -5.8 L 315.6 -5.8 L 315.6 -5.8 Q 314.6 -4.2 312.4 -3.1 L 312.4 -3.1 L 312.4 -3.1 Q 310.3 -2.1 307.3 -2.1 L 307.3 -2.1 L 307.3 -2.1 Q 304.4 -2.1 302.1 -2.9 L 302.1 -2.9 L 302.1 -2.9 Q 299.7 -3.7 298.2 -5.3 Z M 311.7 -31.3 L 311.7 -31.3 L 311.7 -31.3 Q 311 -30.1 310.3 -28.2 L 310.3 -28.2 L 310.3 -28.2 Q 309.7 -26.2 308.6 -21 L 308.6 -21 L 308.6 -21 Q 307.6 -15.8 307.6 -12.1 L 307.6 -12.1 L 307.6 -12.1 Q 307.6 -8.4 308.1 -7.3 L 308.1 -7.3 L 308.1 -7.3 Q 308.7 -6.2 309.7 -6.2 L 309.7 -6.2 L 309.7 -6.2 Q 311.8 -6.2 313.3 -8.2 L 313.3 -8.2 L 313.3 -8.2 Q 314.8 -10.1 315.4 -13.6 L 315.4 -13.6 L 318.8 -32.3 L 318.8 -32.3 Q 317.4 -33.5 315.9 -33.5 L 315.9 -33.5 L 315.9 -33.5 Q 314.3 -33.5 313.4 -33 L 313.4 -33 L 313.4 -33 Q 312.4 -32.5 311.7 -31.3 Z M 350.9 -6.9 L 350.9 -6.9 L 350.9 -6.9 Q 348.9 -2.1 342.6 -2.1 L 342.6 -2.1 L 342.6 -2.1 Q 339.4 -2.1 337.3 -4.4 L 337.3 -4.4 L 337.3 -4.4 Q 335.7 -6.2 335.7 -8.3 L 335.7 -8.3 L 335.7 -8.3 Q 335.7 -13.1 337.9 -23.6 L 337.9 -23.6 L 342.6 -48.2 L 355.6 -49.5 L 349.4 -17.1 L 349.4 -17.1 Q 348.3 -12.4 348.3 -10.7 L 348.3 -10.7 L 348.3 -10.7 Q 348.3 -7 350.9 -6.9 Z M 371.6 -6.9 L 371.6 -6.9 L 371.6 -6.9 Q 369.7 -2.1 363.3 -2.1 L 363.3 -2.1 L 363.3 -2.1 Q 360.1 -2.1 358.1 -4.4 L 358.1 -4.4 L 358.1 -4.4 Q 356.4 -6.2 356.4 -8.3 L 356.4 -8.3 L 356.4 -8.3 Q 356.4 -13.1 358.6 -23.6 L 358.6 -23.6 L 363.3 -48.2 L 376.3 -49.5 L 370.1 -17.1 L 370.1 -17.1 Q 369 -12.4 369 -10.7 L 369 -10.7 L 369 -10.7 Q 369 -7 371.6 -6.9 Z M 403 -14.2 L 403 -14.2 L 403 -14.2 Q 404.6 -13.1 404.6 -10.7 L 404.6 -10.7 L 404.6 -10.7 Q 404.6 -8.3 403.4 -6.8 L 403.4 -6.8 L 403.4 -6.8 Q 402.2 -5.3 400.2 -4.2 L 400.2 -4.2 L 400.2 -4.2 Q 396.1 -2.1 391.7 -2.1 L 391.7 -2.1 L 391.7 -2.1 Q 387.3 -2.1 384.7 -3.1 L 384.7 -3.1 L 384.7 -3.1 Q 382.1 -4 380.3 -5.8 L 380.3 -5.8 L 380.3 -5.8 Q 376.9 -9.2 376.9 -15.4 L 376.9 -15.4 L 376.9 -15.4 Q 376.9 -25.1 382.2 -31 L 382.2 -31 L 382.2 -31 Q 387.8 -37.3 397.6 -37.3 L 397.6 -37.3 L 397.6 -37.3 Q 403.7 -37.3 406.7 -34.8 L 406.7 -34.8 L 406.7 -34.8 Q 408.9 -32.8 408.9 -29.7 L 408.9 -29.7 L 408.9 -29.7 Q 408.9 -18.4 389.5 -18.4 L 389.5 -18.4 L 389.5 -18.4 Q 389.2 -16.8 389.2 -15.4 L 389.2 -15.4 L 389.2 -15.4 Q 389.2 -12.4 390.5 -11.3 L 390.5 -11.3 L 390.5 -11.3 Q 391.9 -10.2 394.3 -10.2 L 394.3 -10.2 L 394.3 -10.2 Q 396.7 -10.2 399.3 -11.3 L 399.3 -11.3 L 399.3 -11.3 Q 401.9 -12.4 403 -14.2 Z M 389.9 -21.2 L 389.9 -21.2 L 389.9 -21.2 Q 394.5 -21.2 397.1 -24 L 397.1 -24 L 397.1 -24 Q 399.7 -26.7 399.7 -31 L 399.7 -31 L 399.7 -31 Q 399.7 -32.5 399.2 -33.3 L 399.2 -33.3 L 399.2 -33.3 Q 398.6 -34.1 397.6 -34.1 L 397.6 -34.1 L 397.6 -34.1 Q 396.5 -34.1 395.5 -33.6 L 395.5 -33.6 L 395.5 -33.6 Q 394.6 -33.2 393.7 -31.8 L 393.7 -31.8 L 393.7 -31.8 Q 391.3 -28.6 389.9 -21.2 Z M 431.2 -21.4 L 431.2 -21.4 L 431.2 -21.4 Q 433.5 -25.5 433.5 -29.6 L 433.5 -29.6 L 433.5 -29.6 Q 433.5 -32.4 431.5 -32.4 L 431.5 -32.4 L 431.5 -32.4 Q 429.9 -32.4 428.3 -29.8 L 428.3 -29.8 L 428.3 -29.8 Q 426.7 -27.1 426.2 -23.7 L 426.2 -23.7 L 422.8 -3.4 L 409.6 -2.1 L 416.1 -36 L 426.7 -37.3 L 425.5 -30.9 L 425.5 -30.9 Q 428.7 -37.3 435.7 -37.3 L 435.7 -37.3 L 435.7 -37.3 Q 439.4 -37.3 441.4 -35.4 L 441.4 -35.4 L 441.4 -35.4 Q 443.4 -33.5 443.4 -29.5 L 443.4 -29.5 L 443.4 -29.5 Q 443.4 -25.6 440.9 -23.1 L 440.9 -23.1 L 440.9 -23.1 Q 438.3 -20.6 433.8 -20.6 L 433.8 -20.6 L 433.8 -20.6 Q 431.9 -20.6 431.2 -21.4 Z M 464.8 -10.6 L 464.8 -10.6 L 464.8 -10.6 Q 461.5 -7.2 455.4 -7.2 L 455.4 -7.2 L 455.4 -7.2 Q 447.8 -7.2 446.2 -12.7 L 446.2 -12.7 L 446.2 -12.7 Q 445.7 -14.4 445.7 -16.3 L 445.7 -16.3 L 445.7 -16.3 Q 445.7 -18.1 446.1 -20 L 446.1 -20 L 449.1 -36 L 462.1 -37.3 L 458.5 -18.7 L 458.5 -18.7 Q 458.4 -17.9 458.2 -17 L 458.2 -17 L 458.2 -17 Q 458 -16.1 458 -15.1 L 458 -15.1 L 458 -15.1 Q 458 -14.2 458.4 -13.6 L 458.4 -13.6 L 458.4 -13.6 Q 458.7 -13 459.1 -12.6 L 459.1 -12.6 L 459.1 -12.6 Q 459.9 -12.1 461.3 -12.1 L 461.3 -12.1 L 461.3 -12.1 Q 462.6 -12.1 463.8 -13.8 L 463.8 -13.8 L 463.8 -13.8 Q 465 -15.4 465.6 -18.3 L 465.6 -18.3 L 469.1 -36 L 481.7 -37.3 L 476.9 -12.2 L 476.9 -12.2 Q 474.5 0.1 469.7 5 L 469.7 5 L 469.7 5 Q 467.2 7.5 464 8.5 L 464 8.5 L 464 8.5 Q 460.7 9.5 456.6 9.5 L 456.6 9.5 L 456.6 9.5 Q 449.8 9.5 446 7.4 L 446 7.4 L 446 7.4 Q 442.2 5.2 442.2 1.7 L 442.2 1.7 L 442.2 1.7 Q 442.2 -0.9 444.1 -2.4 L 444.1 -2.4 L 444.1 -2.4 Q 446.1 -3.9 449.2 -3.9 L 449.2 -3.9 L 449.2 -3.9 Q 451.9 -3.9 453.9 -2.8 L 453.9 -2.8 L 453.9 -2.8 Q 455.2 -2.1 455.7 -1.2 L 455.7 -1.2 L 455.7 -1.2 Q 454.3 0.1 454.3 2.2 L 454.3 2.2 L 454.3 2.2 Q 454.3 5.1 456.8 5.1 L 456.8 5.1 L 456.8 5.1 Q 461 5.1 463.5 -4.7 L 463.5 -4.7 L 463.5 -4.7 Q 464.2 -7.6 464.8 -10.6 Z" fill="url(#editing-gradow-gradient)"></path></g></g><style>text {
  font-size: 64px;
  font-family: Arial Black;
  dominant-baseline: central;
  text-anchor: middle;
}</style></svg>